<?xml version="1.0" standalone="no"?>
<!DOCTYPE svg PUBLIC "-//W3C//DTD SVG 20010904//EN"
 "http://www.w3.org/TR/2001/REC-SVG-20010904/DTD/svg10.dtd">
<svg version="1.0" xmlns="http://www.w3.org/2000/svg"
 width="500.000000pt" height="500.000000pt" viewBox="0 0 500.000000 500.000000"
 preserveAspectRatio="xMidYMid meet">
<metadata>
Created by potrace 1.14, written by Peter Selinger 2001-2017
</metadata>
<g transform="translate(0.000000,500.000000) scale(0.100000,-0.100000)"
fill="#000000" stroke="none">
<path d="M2417 3498 c4 -7 153 -217 330 -465 l324 -453 -172 -242 c-95 -134
-244 -343 -331 -465 -87 -122 -158 -224 -158 -227 0 -3 78 -6 174 -6 l173 0
279 395 c241 341 282 395 304 394 21 0 65 -56 305 -394 l279 -395 178 0 177 0
-236 333 c-130 182 -280 394 -334 470 l-98 138 173 242 c95 133 243 341 330
462 l157 220 -171 3 c-100 1 -177 -2 -184 -7 -6 -5 -137 -188 -291 -405 -154
-217 -282 -395 -285 -395 -3 0 -133 182 -290 404 l-285 404 -178 1 c-140 0
-177 -3 -170 -12z"/>
<path d="M2106 3080 c-93 -28 -112 -141 -32 -194 78 -50 188 20 172 110 -6 30
-54 84 -76 84 -5 0 -14 2 -22 4 -7 2 -26 0 -42 -4z"/>
<path d="M790 2340 l0 -700 110 0 110 0 -6 43 c-3 23 -10 64 -15 90 -11 60
-11 57 4 57 7 0 21 -15 31 -34 28 -53 94 -113 155 -144 52 -25 65 -27 176 -27
113 0 124 2 180 29 159 78 256 259 255 475 -1 167 -57 309 -160 404 -178 165
-483 134 -596 -59 -33 -57 -59 -60 -49 -6 19 96 24 182 25 370 l0 202 -110 0
-110 0 0 -700z m620 77 c50 -24 110 -85 131 -132 77 -172 14 -381 -133 -445
-117 -51 -264 -17 -335 78 -68 90 -82 247 -33 360 26 59 100 132 152 150 48
16 176 10 218 -11z"/>
<path d="M1910 2520 l0 -100 53 0 c28 0 59 -5 67 -10 22 -14 28 -1002 6 -1054
-24 -58 -65 -76 -173 -76 l-93 0 0 -101 0 -102 140 5 c125 5 145 8 194 32 32
16 70 45 90 69 67 83 66 69 66 758 0 386 -4 627 -10 639 -16 30 -67 40 -206
40 l-134 0 0 -100z"/>
</g>
</svg>
